<?xml version="1.0" encoding="UTF-8"?>
<svg version="1.1" viewBox="0 0 800 800" width="800" height="800" xmlns="http://www.w3.org/2000/svg">
<path transform="translate(363,125)" d="m0 0h201l3 1 17 2 11 4 14 8 9 9 9 14 4 13v21l-4 14-6 16-14 43-5 10-8 11-10 9-15 9-11 4-6 1-45 1 3 3 11 8 10 9 6 5 11 16 9 19 4 14 1 7v19l-7 20-2 9 10 9 7 8 7 10 8 16 6 16 1 1 1 9 1 2 2 12v26l-3 17-1 8-4 16-6 16-14 43-8 16-11 14-3 5h-2v2l-14 11-11 9-11 8-21 10-10 4-14 4-15 3-18 2-2 1h-78l-3-2-22-1-16-3-17-4-19-9-12-6-5-5-7-4-16-14-6-8-4-4-7-12-10-19-4-13-1-7h-2l1-7 5-16 7-22 5-16 1-1 1-11 1-1h67l-4-4-9-6-7-7-7-6-8-11-6-9-7-15-6-19-2-13-2-6v-7l8-25v-4l-11-9-1-3-4-2-7-9-5-2-6-10-4-8-2-5-2-21v-25l2-13 7-29 13-41 10-31 8-16 12-18 6-8h2l1-3 6-5 5-5 14-11 13-8 17-8 11-4 13-3 25-2z" fill="#237137"/>
<path transform="translate(212,270)" d="m0 0h1l2 35 2 8 5 12 6 9v2l5 2 15 16 13 10 18 10 20 8 21 6 18 3 11 1 35 1h21l89 1 20 3 21 7 16 9 5 5-4 16-2 4-5-2-12-8-10-4-11-5-7-2-15-2-126-1-21-1-26-4-14-3-24-8-24-12h-6v14l4 17 6 18 8 17 10 14 19 19 15 9 19 8 15 3 11 2 10 1 92 1 10 5 6 8 2 5v10l-5 9-8 7-5 2-135 1h-34l-10-5-10-9-10-10-6-7-7-11-7-15-6-19-2-13-2-6v-7l8-25v-4l-11-9-1-3-4-2-7-9-5-2-6-10-4-8-2-5-2-21v-25l2-13 7-29 5-16h2z" fill="#184C26"/>
<path transform="translate(219,570)" d="m0 0 2 2 5 15 8 16 10 16 11 13 13 11 11 8 16 9 18 8 15 4 21 4 20 1 3 1h81l4-1 16-1 9-2 17-4 6-2 11-3 6-3 7-1 4-4 7-2 6-8h4v-2l3-2 5 1-1 5 5-5 6-7h3v7l-6 16-6 10-10 13-3 5h-2v2l-14 11-11 9-11 8-21 10-10 4-14 4-15 3-18 2-2 1h-78l-3-2-22-1-16-3-17-4-19-9-12-6-5-5-7-4-16-14-6-8-4-4-7-12-10-19-4-13-1-7h-2l1-7 5-16 7-22 4-12z" fill="#184C26"/>
<path transform="translate(603,246)" d="m0 0h3l-1 6 7-1-1 7-6 17-7 11-10 11-15 10-12 5-3 1h-56l-19-8-11-3-6-1-120-1-7-5-3-7 1-24 3-8 5-3 230-2 14-1 8-3z" fill="#184C26"/>
<path transform="translate(318,202)" d="m0 0h17l5 3 4 5v7l-7 16-9 14-7 9h-2v2l-10 7-8 4-17 5-8 6-3 5v21l2 21 7-3 3-1v-2l4-4 2-5v-10l-4-6v-5l4-1 2 1 3 10 5 1v-18l2-2 5 1 1 1-1 8-2 9h5l3-5 4-6 5-1 1 1v5l-6 7h-2l-1 5 1 1h17l1 4-2 3-13-1-2 2v6l4 3 4 2 1 4-2 2-5-1-5-5-8-3h-9l-9 6-9 8-4 2-5-1-3-6-3-13-2-4-5-1-5 3-8 8-11 8-5-4-8-16-2-8v-35l8-6 3-1 18-1 6-5 5-10 5-16 7-10 10-8 12-6 14-4z" fill="#184C26"/>
<path transform="translate(524,470)" d="m0 0h11l12 7 10 8 11 10 7 10 3 5 3 10v15l-2 12v12l3 6 9 6-1 17-1 3-3 3-6 11-9 11-5 7h-2l-2 4-3 1-4-6-5-15-2-2-7 1-9 10-4 4-4 1-5-4-6-15-4-7-7-4-10-1-4 2h-6l-1-5 1-2 11-1 1-2v-6l-6-3-5-2-1-4 1-2h5l8 6h6l-3-12 1-5 3-2 4 4v10l1 3 5 1 2-13 2-3h5l2 3-1 5-6 10 1 3 4-1 4-5 5-1 2 2-1 4-5 3-5 5-2 5v9l5 10 3 1 7-11 10-16 3-7v-8l-5-9-14-14-6-10-4-11-2-11v-27l2-8z" fill="#184C26"/>
<path transform="translate(555,159)" d="m0 0h2l2 4 1 6v12l-4 11-6 9-8 7-11 4h-12l-17-5-10-7-9-8-1-4 10 1h15l18-4 13-7 10-9z" fill="#34A853"/>
</svg>
